<?xml version="1.0" encoding="utf-8"?>
<!-- Generator: Adobe Illustrator 22.0.1, SVG Export Plug-In . SVG Version: 6.00 Build 0)  -->
<svg version="1.1" id="レイヤー_1" xmlns="http://www.w3.org/2000/svg" xmlns:xlink="http://www.w3.org/1999/xlink" x="0px"
	 y="0px" viewBox="0 0 381.6 104.9" style="enable-background:new 0 0 381.6 104.9;" xml:space="preserve">
<g>
	<path d="M0,1.1h13.8c8.5,0,16.3,2.7,16.3,11.5c0,9.2-8.7,11.6-15.2,11.6H5.5V43H0V1.1z M5.5,19.5h9.3c5.5,0,9.3-2.2,9.3-6.9
		s-3.8-6.9-9.3-6.9H5.5V19.5z"/>
	<path d="M71.8,1.1h11.9c9,0,18.5,1.2,18.5,11.5c0,6.1-4.4,10-11.6,11l13.2,19.3H97L84.4,24.1h-7.1v18.8h-5.5V1.1z M77.3,19.5h4.9
		c6.1,0,14,0,14-6.9c0-6-5.8-6.9-11.2-6.9h-7.7C77.3,5.7,77.3,19.5,77.3,19.5z"/>
	<path d="M142,22c0-12.6,10.2-22,24.3-22s24.3,9.3,24.3,22c0,12.6-10.2,22-24.3,22S142,34.6,142,22z M184.7,22
		c0-9.6-7.5-17.4-18.4-17.4s-18.4,7.8-18.4,17.4s7.5,17.4,18.4,17.4C177.2,39.3,184.7,31.6,184.7,22z"/>
	<path d="M232.3,1.1h13.8c8.5,0,16.3,2.7,16.3,11.5c0,9.2-8.7,11.6-15.2,11.6h-9.4V43h-5.5V1.1z M237.8,19.5h9.4
		c5.5,0,9.3-2.2,9.3-6.9s-3.8-6.9-9.3-6.9h-9.4V19.5z"/>
	<path d="M299.8,22c0-12.6,10.2-22,24.3-22c14.1,0,24.3,9.3,24.3,22c0,12.6-10.2,22-24.3,22S299.8,34.6,299.8,22z M342.5,22
		c0-9.6-7.5-17.4-18.4-17.4s-18.4,7.8-18.4,17.4s7.5,17.4,18.4,17.4C335,39.3,342.5,31.6,342.5,22z"/>
	<g>
		<path d="M0,62h17.9c9.1,0,22.8,5.5,22.8,20.9S27,103.8,17.9,103.8H0V62z M5.5,99.2H16c10.6,0,18.7-4.8,18.7-16.3
			S26.6,66.6,16,66.6H5.5V99.2z"/>
		<path d="M72.5,62h29.2v4.6H78v13.1h22.1v4.6H78v14.9h24.9v4.6H72.5V62z"/>
		<path d="M156.5,69.4c-1.8-2.7-5.1-3.8-8.5-3.8c-4.9,0-9.9,2.1-9.9,7c0,3.8,2.4,5.5,9.8,7.7c7.2,2.1,13.9,4.2,13.9,12.4
			c0,8.3-7.9,12.2-16.3,12.2c-5.4,0-11.2-1.6-14.3-5.8l4.7-3.5c2,3.1,5.9,4.7,9.9,4.7c4.7,0,10.1-2.5,10.1-7.3c0-5.1-3.9-6-12.1-8.5
			c-6.6-1.9-11.6-4.5-11.6-11.5c0-8.1,7.7-12.1,15.8-12.1c5.2,0,9.6,1.3,13,4.9L156.5,69.4z"/>
		<path d="M193.9,62h5.5v41.8h-5.5V62z"/>
		<path d="M273.5,101c-5.3,2.7-11.4,3.9-17.4,3.9c-14.4,0-24.8-8.9-24.8-22c0-13.2,11.1-22,25-22c6.1,0,12,1.5,16.4,5.5l-4.1,3.9
			c-3.1-3.1-7.9-4.8-12.7-4.8c-10.6,0-18.7,7.2-18.7,17.4c0,10,7.8,17.4,19.2,17.4c3.8,0,8.1-0.9,11.5-2.4V85h-10.7v-4.6h16.2V101
			H273.5z"/>
		<path d="M308,62h6.9l26.9,34.7h0.1V62h5.5v41.8h-7l-26.9-34.7h-0.2v34.7H308V62z"/>
	</g>
	<g>
		<path d="M366.5,2.1h-3.8v10.1h-1.5V2.1h-3.8V0.8h9.1L366.5,2.1L366.5,2.1z"/>
		<path d="M381.6,12.2h-1.5V2.5l-3.2,9.7h-1.4l-3.2-9.7v9.7h-1.4V0.8h2.2l3.1,9.5l3.1-9.5h2.3V12.2z"/>
	</g>
</g>
</svg>
