<?xml version="1.0" encoding="utf-8"?>
<!-- Generator: Adobe Illustrator 22.0.1, SVG Export Plug-In . SVG Version: 6.00 Build 0)  -->
<svg version="1.1" id="レイヤー_1" xmlns="http://www.w3.org/2000/svg" xmlns:xlink="http://www.w3.org/1999/xlink" x="0px"
	 y="0px" viewBox="0 0 66.7 66.7" style="enable-background:new 0 0 66.7 66.7;" xml:space="preserve">
<style type="text/css">
	.st0{display:none;fill:#040000;}
	.st1{fill:#FFFFFF;}
	.st2{display:none;}
	.st3{display:inline;fill:#EEEEED;}
</style>
<ellipse transform="matrix(0.1619 -0.9868 0.9868 0.1619 -4.9605 60.8882)" class="st0" cx="33.4" cy="33.4" rx="33.4" ry="33.4"/>
<g>
	<path class="st1" d="M33.4,26.8c2.2,0,2.4,0,3.3,0c0.8,0,1.2,0.2,1.5,0.3c0.4,0.1,0.6,0.3,0.9,0.6c0.3,0.3,0.5,0.6,0.6,0.9
		c0.1,0.3,0.2,0.7,0.3,1.5c0,0.9,0,1.1,0,3.3c0,2.2,0,2.4,0,3.3c0,0.8-0.2,1.2-0.3,1.5c-0.1,0.4-0.3,0.6-0.6,0.9
		c-0.3,0.3-0.6,0.5-0.9,0.6c-0.3,0.1-0.7,0.2-1.5,0.3c-0.9,0-1.1,0-3.3,0c-2.2,0-2.4,0-3.3,0c-0.8,0-1.2-0.2-1.5-0.3
		c-0.4-0.1-0.6-0.3-0.9-0.6c-0.3-0.3-0.5-0.6-0.6-0.9c-0.1-0.3-0.2-0.7-0.3-1.5c0-0.9,0-1.1,0-3.3c0-2.2,0-2.4,0-3.3
		c0-0.8,0.2-1.2,0.3-1.5c0.1-0.4,0.3-0.6,0.6-0.9c0.3-0.3,0.6-0.5,0.9-0.6c0.3-0.1,0.7-0.2,1.5-0.3C31,26.8,31.2,26.8,33.4,26.8
		 M33.4,25.3c-2.2,0-2.5,0-3.3,0c-0.9,0-1.4,0.2-2,0.4c-0.5,0.2-1,0.5-1.4,0.9c-0.4,0.4-0.7,0.9-0.9,1.4c-0.2,0.5-0.3,1.1-0.4,2
		c0,0.9,0,1.1,0,3.3c0,2.2,0,2.5,0,3.3c0,0.9,0.2,1.4,0.4,2c0.2,0.5,0.5,1,0.9,1.4c0.4,0.4,0.9,0.7,1.4,0.9c0.5,0.2,1.1,0.3,2,0.4
		c0.9,0,1.1,0,3.3,0s2.5,0,3.3,0c0.9,0,1.4-0.2,2-0.4c0.5-0.2,1-0.5,1.4-0.9c0.4-0.4,0.7-0.9,0.9-1.4c0.2-0.5,0.3-1.1,0.4-2
		c0-0.9,0-1.1,0-3.3c0-2.2,0-2.5,0-3.3c0-0.9-0.2-1.4-0.4-2c-0.2-0.5-0.5-1-0.9-1.4c-0.4-0.4-0.9-0.7-1.4-0.9
		c-0.5-0.2-1.1-0.3-2-0.4C35.8,25.3,35.6,25.3,33.4,25.3L33.4,25.3z"/>
	<path class="st1" d="M33.4,29.2c-2.3,0-4.1,1.9-4.1,4.1c0,2.3,1.9,4.1,4.1,4.1s4.1-1.9,4.1-4.1C37.5,31.1,35.7,29.2,33.4,29.2z
		 M33.4,36.1c-1.5,0-2.7-1.2-2.7-2.7c0-1.5,1.2-2.7,2.7-2.7s2.7,1.2,2.7,2.7C36.1,34.8,34.8,36.1,33.4,36.1z"/>
	<path class="st1" d="M38.6,29.1c0,0.5-0.4,1-1,1c-0.5,0-1-0.4-1-1c0-0.5,0.4-1,1-1C38.2,28.1,38.6,28.5,38.6,29.1z"/>
</g>
<circle class="st0" cx="33" cy="33.1" r="33.4"/>
<g class="st2">
	<path class="st3" d="M38.2,40.9c-0.6,0.6-2,1.1-3.3,1.1h-0.1c-4.2,0-5.1-3.1-5.1-4.9v-5h-1.7c-0.2,0-0.3-0.2-0.3-0.3l0,0v-2.4
		c0-0.2,0.2-0.5,0.4-0.6c2.2-0.8,2.8-2.6,2.9-4.1c0-0.4,0.2-0.6,0.6-0.6h2.5c0.2,0,0.3,0.2,0.3,0.3v4h2.9c0.2,0,0.3,0.2,0.3,0.3v2.8
		c0,0.2-0.2,0.3-0.3,0.3h-2.9v4.6c0,1.2,0.8,1.5,1.2,1.5c0.5,0,0.9-0.1,1.1-0.2c0.2-0.1,0.3-0.1,0.4-0.1c0.1,0,0.2,0.1,0.3,0.3
		l0.8,2.2C38.3,40.6,38.3,40.8,38.2,40.9z"/>
</g>
</svg>
